<svg width="1338" height="1080" viewBox="0 0 1338 1080" fill="none" xmlns="http://www.w3.org/2000/svg">
<circle cx="788.755" cy="92.794" r="178.465" transform="rotate(31.8745 788.755 92.794)" fill="#FF4500"/>
<circle cx="1091.86" cy="281.274" r="178.465" transform="rotate(31.8745 1091.86 281.274)" fill="#FF4500"/>
<circle cx="903.382" cy="584.381" r="178.465" transform="rotate(31.8745 903.382 584.381)" fill="#FF4500"/>
<circle cx="600.274" cy="395.901" r="178.465" transform="rotate(31.8745 600.274 395.901)" fill="#FF4500"/>
<circle cx="714.901" cy="887.488" r="178.465" transform="rotate(31.8745 714.901 887.488)" fill="#FF4500"/>
<circle cx="411.794" cy="699.008" r="178.465" transform="rotate(31.8745 411.794 699.008)" fill="#FF4500"/>
<circle cx="481.862" cy="-86.7256" r="178.465" transform="rotate(31.8745 481.862 -86.7256)" fill="#FF4500"/>
<circle cx="293.382" cy="216.381" r="178.465" transform="rotate(31.8745 293.382 216.381)" fill="#FF4500"/>
<circle cx="-9.72574" cy="27.9009" r="178.465" transform="rotate(31.8745 -9.72574 27.9009)" fill="#FF4500"/>
<circle cx="104.901" cy="519.488" r="178.465" transform="rotate(31.8745 104.901 519.488)" fill="#FF4500"/>
<circle cx="-198.206" cy="331.008" r="178.465" transform="rotate(31.8745 -198.206 331.008)" fill="#FF4500"/>
</svg>
