<svg width="300" height="405" viewBox="0 0 300 405" fill="none" xmlns="http://www.w3.org/2000/svg">
<path d="M887.923 629.282C880.834 640.866 865.737 646.5 843.574 646.033C821.506 645.568 792.994 639.05 759.945 627.086C693.875 603.168 610.103 557.645 524.334 496.154C438.565 434.664 367.156 368.934 321.032 312.416C297.961 284.145 281.292 258.272 272.286 236.459C263.24 214.552 262.142 197.307 269.23 185.722C276.318 174.138 291.415 168.504 313.579 168.971C335.647 169.437 364.158 175.954 397.207 187.918C463.277 211.836 547.05 257.359 632.819 318.85C718.588 380.34 789.996 446.07 836.12 502.588C859.192 530.859 875.86 556.732 884.867 578.545C893.912 600.452 895.011 617.697 887.923 629.282Z" stroke="black" stroke-width="4"/>
<path d="M844.092 700.918C837.004 712.502 821.906 718.136 799.743 717.669C777.675 717.203 749.163 710.685 716.115 698.722C650.044 674.804 566.272 629.281 480.503 567.79C394.734 506.3 323.325 440.569 277.201 384.052C254.13 355.781 237.461 329.908 228.455 308.095C219.409 286.188 218.311 268.943 225.399 257.358C232.487 245.773 247.584 240.14 269.748 240.607C291.816 241.072 320.327 247.59 353.376 259.554C419.447 283.472 503.219 328.995 588.988 390.486C674.757 451.976 746.165 517.706 792.289 574.224C815.361 602.495 832.029 628.368 841.036 650.18C850.081 672.088 851.18 689.333 844.092 700.918Z" stroke="black" stroke-width="4"/>
<path d="M811.218 754.643C804.13 766.228 789.033 771.862 766.869 771.395C744.801 770.929 716.29 764.411 683.241 752.448C617.17 728.53 533.398 683.006 447.629 621.516C361.86 560.026 290.452 494.295 244.328 437.777C221.256 409.507 204.587 383.634 195.581 361.821C186.536 339.914 185.437 322.669 192.525 311.084C199.613 299.499 214.711 293.866 236.874 294.333C258.942 294.798 287.453 301.316 320.502 313.28C386.573 337.198 470.345 382.721 556.114 444.211C641.883 505.702 713.291 571.432 759.416 627.95C782.487 656.221 799.156 682.094 808.162 703.906C817.207 725.814 818.306 743.059 811.218 754.643Z" stroke="black" stroke-width="4"/>
</svg>
